<svg version="1.1" id="Layer_1" xmlns="http://www.w3.org/2000/svg" xmlns:xlink="http://www.w3.org/1999/xlink" x="0px"
    y="0px" width="100%" viewBox="0 0 512 512" enable-background="new 0 0 512 512" xml:space="preserve">
    <path fill="#000000" opacity="1.000000" stroke="none" d="
M513.000000,191.000000 
	C513.000000,298.640503 513.000000,405.781006 513.000000,512.960754 
	C342.401154,512.960754 171.802292,512.960754 1.101721,512.960754 
	C1.101721,342.442871 1.101721,171.885635 1.101721,1.164206 
	C171.666534,1.164206 342.333252,1.164206 513.000000,1.164206 
	C513.000000,64.197662 513.000000,127.348831 513.000000,191.000000 
M181.592422,464.884674 
	C181.671585,464.321625 181.750732,463.758575 181.992706,462.616577 
	C182.040726,462.421936 182.088730,462.227295 182.850159,461.579346 
	C182.953308,458.387909 183.056458,455.196503 183.749481,452.322174 
	C191.828796,463.156403 200.915009,472.130463 216.981110,469.934692 
	C219.924591,469.950562 222.868073,469.966431 225.652969,470.801056 
	C223.247742,483.139526 226.546051,493.219788 240.635101,496.357758 
	C251.463547,498.769501 262.363098,499.071716 272.988800,496.761932 
	C287.867401,493.527679 292.344604,483.831116 290.050140,469.967804 
	C292.703125,469.923096 295.356079,469.878357 298.921021,469.970490 
	C302.793701,469.695740 306.836456,470.037537 310.505585,469.025116 
	C319.738190,466.477600 325.579346,459.502411 330.980621,452.889435 
	C331.306213,455.936279 331.631775,458.983124 332.014954,462.729523 
	C332.315948,463.513672 332.616943,464.297791 332.996246,465.801575 
	C335.258789,471.250244 339.348450,475.152893 344.284119,477.981445 
	C354.661621,483.928619 365.113770,489.767670 375.743713,495.246704 
	C390.214844,502.705597 404.808838,501.220428 420.031097,494.942474 
	C420.457581,494.705688 420.857544,494.354218 421.314362,494.248535 
	C447.554871,488.179108 463.761963,470.759033 473.877075,446.966980 
	C484.622803,421.691742 487.201019,394.710846 487.792664,367.703705 
	C488.396393,340.148193 487.675507,312.545746 486.837250,284.985046 
	C486.485291,273.412872 485.290680,261.686646 482.812195,250.396393 
	C477.749512,227.334534 467.046021,207.869598 444.178314,197.495667 
	C442.810150,196.875000 441.726227,195.053833 441.064209,193.547699 
	C437.791321,186.101440 435.127197,178.358810 431.454010,171.124039 
	C425.926910,160.237869 419.739777,149.686829 414.121277,138.373367 
	C418.145386,134.019241 422.149292,129.646286 426.197235,125.314392 
	C440.739746,109.751785 455.328491,94.232262 469.835052,78.636269 
	C476.683746,71.273254 483.483337,63.859047 490.097412,56.286552 
	C492.201324,53.877804 493.936920,51.026283 495.307526,48.125301 
	C497.595551,43.282581 495.561523,36.424519 491.716309,36.163696 
	C488.224030,35.926819 484.001862,35.862038 481.211609,37.553089 
	C460.478699,50.118317 440.002411,63.108212 419.487152,76.030762 
	C406.354004,84.303307 393.291626,92.688210 379.879822,100.399498 
	C370.211578,93.591537 360.847321,86.285294 350.774323,80.140846 
	C343.358429,75.617195 335.015961,72.612442 326.753479,68.224136 
	C324.502625,58.210896 322.211212,48.206539 320.015076,38.181313 
	C318.531311,31.408178 317.468506,24.481272 311.830048,19.287069 
	C311.830048,19.287069 311.454742,19.084362 310.898621,18.523457 
	C306.015137,17.015276 301.151978,14.284636 296.244812,14.203120 
	C270.126648,13.769260 243.994781,13.810973 217.874680,14.182068 
	C213.466110,14.244701 209.091766,16.718103 204.106918,18.029922 
	C203.396423,18.636938 202.685928,19.243954 201.324936,20.141838 
	C199.577759,23.034157 196.968445,25.723927 196.233078,28.853962 
	C193.101074,42.184925 190.523605,55.646175 187.014801,69.047829 
	C178.731140,72.827385 169.980545,75.846718 162.280334,80.576218 
	C152.341537,86.680664 143.242783,94.152817 133.180603,100.715584 
	C132.728760,100.228989 132.357193,99.613907 131.813538,99.274254 
	C106.967545,83.751511 82.101311,68.261192 57.250164,52.746685 
	C49.007576,47.600861 40.871872,42.279228 32.543335,37.277706 
	C28.644535,34.936375 21.360657,35.375984 19.622124,38.023869 
	C16.965548,42.069996 17.190563,46.367252 19.890078,50.469536 
	C21.041328,52.219017 21.913300,54.203911 23.288816,55.745842 
	C32.596195,66.179192 41.905392,76.614311 51.405956,86.871056 
	C62.416351,98.757812 73.644547,110.442566 84.736076,122.254555 
	C89.930626,127.786507 95.026299,133.411316 100.012375,139.705536 
	C89.229668,156.315063 80.350800,173.913391 73.417412,192.435257 
	C72.169411,195.769180 70.172630,197.286652 67.482498,198.880661 
	C62.893650,201.599731 57.959896,204.046234 54.080906,207.600311 
	C37.055992,223.199219 30.945141,243.981079 28.145838,265.890137 
	C26.664944,277.480499 26.031118,289.265381 26.120783,300.953979 
	C26.394957,336.694244 24.110126,372.518433 29.897635,408.102051 
	C32.719936,425.454620 36.727077,442.382812 45.431709,457.731110 
	C56.636810,477.488403 73.076569,490.619476 96.200089,495.671906 
	C97.265381,496.035828 98.337921,496.379944 99.394867,496.766693 
	C110.929741,500.987305 122.878250,502.132355 134.101700,497.129150 
	C146.613007,491.551849 158.535843,484.585144 170.434387,477.736053 
	C175.312775,474.927856 179.674393,471.023132 181.010071,464.994080 
	C181.010071,464.994080 181.016830,465.062897 181.592422,464.884674 
z" />
    <path fill="#FF0302" opacity="1.000000" stroke="none" d="
M216.101746,469.834259 
	C200.915009,472.130463 191.828796,463.156403 183.381729,451.700562 
	C182.996979,445.989319 182.979965,440.899689 183.211029,436.065063 
	C186.015274,440.427246 188.571442,444.534393 191.269943,448.870270 
	C191.883728,448.081482 192.051514,447.966553 192.051743,447.851318 
	C192.112701,417.134369 192.172836,386.417419 192.164230,355.700439 
	C192.163940,354.683167 191.741501,353.068787 191.044586,352.744019 
	C185.789368,350.295074 180.415985,348.099670 175.069061,345.862640 
	C175.058624,345.900208 175.136551,345.895813 175.177322,345.515350 
	C174.748795,345.124023 174.279480,345.113129 173.532440,344.904358 
	C171.892380,343.820221 170.553909,342.894623 169.163910,342.054138 
	C160.494797,336.812378 149.636475,335.291901 142.960876,326.585907 
	C142.448196,325.917267 140.822464,325.917847 139.714233,325.918396 
	C127.453056,325.924469 115.191917,325.992096 102.957733,326.024139 
	C102.984711,326.005188 102.978951,326.070862 102.896744,325.741119 
	C102.409470,325.218964 102.004395,325.026550 101.463356,324.659424 
	C101.156570,324.077728 100.985741,323.670807 100.837326,322.839050 
	C100.834831,318.916199 102.879021,317.819672 106.020485,317.872314 
	C109.182838,317.925293 112.346848,317.878143 115.510132,317.877777 
	C123.434929,317.876801 131.359726,317.877472 139.190186,317.877472 
	C139.190186,305.186554 139.109360,293.212280 139.248489,281.240540 
	C139.282181,278.342377 138.338684,276.916290 135.635086,275.667175 
	C127.192329,271.766357 118.943535,267.446442 110.609810,263.308624 
	C107.321121,261.675720 105.855408,259.269653 107.452782,255.420837 
	C108.808350,254.821518 109.881714,254.391388 110.964828,253.987396 
	C135.023270,245.013931 159.082764,236.043335 183.398346,227.262787 
	C185.523087,229.540482 187.391541,231.627563 188.878418,233.837738 
	C165.814850,242.327942 143.132874,250.695084 119.645668,259.359283 
	C161.644455,280.826080 205.831726,287.740692 252.603271,288.891998 
	C243.478836,281.106720 235.259094,274.159637 227.113525,267.126678 
	C216.666840,258.106934 206.279831,249.018082 195.899857,239.540344 
	C196.152039,237.651184 196.286026,236.161987 196.603561,234.712997 
	C202.635056,207.190918 208.688217,179.673584 214.872131,151.771896 
	C215.562683,147.258545 218.357040,146.702042 221.893387,146.713715 
	C245.220947,146.790695 268.549377,146.830139 291.876251,146.681717 
	C296.023590,146.655319 298.633942,147.800171 299.259277,152.494904 
	C303.187073,170.553070 307.168091,188.220444 311.016266,205.916687 
	C313.485168,217.270386 315.758392,228.666611 317.975006,240.351700 
	C299.339600,256.501801 280.848541,272.343964 261.524994,288.899384 
	C308.289062,287.749847 352.475616,280.840698 394.407349,259.307068 
	C370.617737,250.559036 347.714722,242.137024 324.963837,233.428513 
	C327.052551,231.124634 328.989136,229.107239 331.212219,227.307617 
	C356.623016,236.868942 381.747253,246.212509 406.906738,255.991425 
	C407.936707,259.800537 406.256073,261.819672 403.452332,263.226685 
	C395.145264,267.395447 386.797882,271.485870 378.544525,275.758087 
	C377.113770,276.498688 375.022247,277.955536 374.999023,279.116852 
	C374.744080,291.855652 374.839111,304.601471 374.839111,317.878632 
	C386.156830,317.878632 396.934570,317.696228 407.696320,318.030090 
	C409.891388,318.098175 412.026276,320.106323 414.155670,321.534241 
	C413.429260,323.061829 412.736084,324.275330 411.573181,325.586731 
	C399.182220,325.752472 387.257111,325.681793 375.343506,326.018585 
	C373.250824,326.077728 371.102936,327.676727 369.167908,328.868713 
	C367.094635,330.145813 365.410919,332.114258 363.263885,333.202026 
	C355.594666,337.087463 347.800995,340.727234 339.717651,344.633545 
	C334.877625,346.942719 330.457703,349.285187 325.842987,351.144196 
	C322.537415,352.475830 321.678070,354.501465 321.694916,357.941864 
	C321.834351,386.432922 321.773987,414.925018 321.774048,443.416779 
	C321.774048,444.831604 321.774017,446.246429 321.774017,447.661224 
	C322.180969,447.802094 322.587891,447.942963 322.994843,448.083832 
	C325.739319,443.477936 328.483765,438.872070 331.348328,434.630829 
	C331.258667,440.664948 331.048950,446.334381 330.839233,452.003845 
	C325.579346,459.502411 319.738190,466.477600 310.505585,469.025116 
	C306.836456,470.037537 302.793701,469.695740 298.707184,469.618195 
	C299.112793,466.840240 299.732269,464.414612 300.750702,461.978760 
	C312.187561,460.969269 314.078827,459.574097 313.936584,449.151276 
	C313.520660,418.684021 313.739319,388.207214 313.861298,357.734772 
	C313.874207,354.513092 313.112976,352.707703 310.005615,351.276398 
	C293.262695,343.564117 276.672668,335.519684 259.921417,327.826050 
	C258.170044,327.021698 255.387970,327.081604 253.623047,327.901184 
	C236.904678,335.664307 220.348923,343.777771 203.626297,351.531464 
	C200.568192,352.949371 200.155838,354.824860 200.162949,357.721924 
	C200.240280,389.193787 200.210953,420.665924 200.211548,452.137970 
	C200.211670,458.572662 201.841904,460.614716 208.157043,461.722137 
	C209.943741,462.035461 211.806992,461.912170 213.690216,462.394043 
	C214.530777,465.144043 215.316269,467.489166 216.101746,469.834259 
M354.954041,290.947449 
	C354.291107,288.729553 353.996185,286.286133 352.827179,284.378357 
	C352.126526,283.234955 349.928284,282.145844 348.626984,282.364502 
	C331.468933,285.247314 314.358765,288.413513 297.217987,291.401917 
	C291.534393,292.392822 285.219330,300.389008 286.376648,306.025726 
	C286.696136,307.581940 288.442627,309.410492 289.979034,310.056305 
	C297.781372,313.336273 305.661438,316.470154 313.671844,319.191254 
	C315.883545,319.942596 318.936127,319.796021 321.087585,318.867493 
	C329.315643,315.316345 337.136078,310.760834 345.487915,307.574066 
	C353.225952,304.621521 356.049591,299.622314 354.954041,290.947449 
M179.531036,286.005432 
	C175.033890,284.830109 170.558884,283.555573 166.025360,282.543091 
	C164.752441,282.258789 162.837418,282.222534 162.017014,282.961121 
	C156.270233,288.134888 158.441360,302.566284 165.360748,305.881348 
	C174.648453,310.331024 183.907394,314.852295 193.328644,319.002411 
	C195.333466,319.885559 198.207016,319.973846 200.294891,319.275696 
	C207.216751,316.961060 213.965073,314.126465 220.775391,311.479523 
	C228.729172,308.388153 229.814468,304.893555 225.244110,297.655975 
	C222.683670,293.601288 219.388077,291.554352 214.363098,291.019073 
	C202.986145,289.807068 191.692017,287.817719 179.531036,286.005432 
M288.281586,317.125366 
	C297.098785,320.564636 305.864075,324.149567 314.774689,327.326996 
	C316.681915,328.007080 319.416901,327.853943 321.260040,326.992462 
	C337.357056,319.468597 353.358063,311.737427 369.317200,303.924011 
	C370.672791,303.260284 371.518524,301.555145 372.601135,300.333801 
	C370.874634,300.334473 368.876587,299.758606 367.463348,300.424316 
	C351.987122,307.714508 336.643646,315.287415 321.140015,322.517395 
	C319.196259,323.423798 316.262451,323.527557 314.254089,322.768402 
	C296.550415,316.076538 278.999084,308.980194 261.272522,302.351654 
	C258.634644,301.365265 254.991409,301.326050 252.370026,302.318787 
	C234.982178,308.903625 217.788101,315.999634 200.409317,322.609497 
	C198.157593,323.465912 194.871933,323.232117 192.636978,322.229218 
	C181.579590,317.267212 170.712662,311.880554 159.782242,306.635986 
	C155.289093,304.480103 150.867096,302.157379 146.278244,300.230957 
	C144.947983,299.672546 143.151474,300.224792 141.568710,300.267853 
	C142.607956,301.496002 143.642502,302.728210 144.694260,303.945526 
	C144.790466,304.056885 145.001648,304.063019 145.151276,304.135010 
	C161.017838,311.766235 176.842209,319.488098 192.803040,326.916748 
	C194.751968,327.823853 197.703979,327.874451 199.732590,327.108124 
	C217.435608,320.420685 234.992340,313.345154 252.711823,306.703186 
	C255.170654,305.781494 258.534027,305.862427 261.041565,306.735138 
	C269.973083,309.843628 278.715820,313.494537 288.281586,317.125366 
z" />
    <path fill="#FF0302" opacity="1.000000" stroke="none" d="
M413.833221,138.993317 
	C419.739777,149.686829 425.926910,160.237869 431.454010,171.124039 
	C435.127197,178.358810 437.791321,186.101440 441.064209,193.547699 
	C441.726227,195.053833 442.810150,196.875000 444.178314,197.495667 
	C467.046021,207.869598 477.749512,227.334534 482.812195,250.396393 
	C485.290680,261.686646 486.485291,273.412872 486.837250,284.985046 
	C487.675507,312.545746 488.396393,340.148193 487.792664,367.703705 
	C487.201019,394.710846 484.622803,421.691742 473.877075,446.966980 
	C463.761963,470.759033 447.554871,488.179108 421.314362,494.248535 
	C420.857544,494.354218 420.457581,494.705688 419.259125,494.846161 
	C414.983124,494.649780 413.585205,492.706360 413.590973,489.355713 
	C413.594055,487.575867 413.329010,485.795563 413.309509,483.559448 
	C413.453491,453.477448 413.968475,423.840790 413.332001,394.228912 
	C412.842804,371.469238 416.390381,349.698425 423.519348,328.118164 
	C428.128265,314.166504 432.706879,299.655182 433.643433,285.158508 
	C435.399994,257.968872 434.512268,230.608032 434.687958,203.318146 
	C434.695282,202.179199 434.510742,200.973328 434.119537,199.907272 
	C427.122742,180.840179 418.723877,162.464264 407.381622,145.370590 
	C409.669678,143.054733 411.751434,141.024017 413.833221,138.993317 
M459.722656,402.500183 
	C460.018219,393.189392 459.214508,383.679291 460.858368,374.612976 
	C463.549927,359.768341 467.787231,345.200806 471.457275,330.537598 
	C475.682922,313.654480 478.740265,296.675171 476.061127,279.186340 
	C474.554169,269.349396 469.854279,265.095551 460.007172,265.050964 
	C453.351898,265.020813 446.690216,265.399292 440.042328,265.784332 
	C438.984558,265.845581 437.984619,266.905487 436.957977,267.503693 
	C438.011963,268.266815 439.054199,269.661469 440.122070,269.681366 
	C444.275177,269.758759 448.435303,269.371429 452.594788,269.208038 
	C469.514374,268.543518 472.160736,271.094788 472.799957,288.235352 
	C473.422363,304.924652 470.292023,321.102203 465.393738,336.862793 
	C457.959351,360.783813 454.394501,385.032623 455.469025,410.129059 
	C456.202301,427.255402 455.608948,444.438568 455.610382,461.596313 
	C455.610474,462.762299 455.392822,463.994232 455.700653,465.074677 
	C455.978546,466.050171 456.838196,466.859924 457.441315,467.742767 
	C458.192505,466.817749 459.225281,465.996338 459.614532,464.938141 
	C459.993408,463.908264 459.721252,462.635986 459.721344,461.470123 
	C459.723053,442.146820 459.722595,422.823517 459.722656,402.500183 
M417.390869,460.424866 
	C417.390869,463.509552 417.390869,466.594269 417.390869,471.160736 
	C426.029755,467.169861 433.536804,463.820587 440.903259,460.186340 
	C442.190125,459.551453 443.670959,457.748108 443.722687,456.431732 
	C444.000183,449.369354 443.853729,442.290283 443.853729,435.267548 
	C434.696228,435.267548 426.301605,435.267548 417.391541,435.267548 
	C417.391541,443.551727 417.391541,451.499786 417.390869,460.424866 
M445.369751,368.084778 
	C446.103638,364.193604 446.837524,360.302429 447.660645,355.938171 
	C439.082245,355.938171 430.773102,355.852814 422.470367,356.044403 
	C421.413177,356.068817 419.576569,357.450287 419.476959,358.354645 
	C418.572540,366.564575 417.974060,374.808167 417.252441,383.444244 
	C426.661285,383.444244 435.066650,383.444244 443.825287,383.444244 
	C444.298370,378.499451 444.754791,373.728577 445.369751,368.084778 
M437.404877,423.004700 
	C439.496002,423.004700 441.587128,423.004700 443.743774,423.004700 
	C443.743774,413.411560 443.743774,404.528748 443.743774,395.514038 
	C434.922913,395.514038 426.422211,395.514038 417.731873,395.514038 
	C417.731873,404.809204 417.731873,413.695709 417.731873,423.004700 
	C424.182312,423.004700 430.303314,423.004700 437.404877,423.004700 
M436.065094,297.555481 
	C435.400391,301.228394 434.735657,304.901306 433.995850,308.989105 
	C442.882294,308.989105 451.198364,309.050079 459.511200,308.913391 
	C460.571960,308.895966 462.462341,307.942566 462.538635,307.262421 
	C463.471466,298.947327 464.136932,290.602234 464.926514,281.642914 
	C456.958771,281.642914 450.484711,281.854370 444.033020,281.565826 
	C439.986267,281.384796 437.804047,282.233582 437.785065,286.856903 
	C437.771576,290.139496 436.752411,293.417999 436.065094,297.555481 
M445.289856,344.286621 
	C447.235016,343.787476 450.401215,343.845459 450.924896,342.697754 
	C454.061340,335.823334 456.589691,328.671478 459.634674,320.804535 
	C450.145264,320.804535 441.564270,320.735107 432.987793,320.899139 
	C432.001678,320.918060 430.498322,322.041351 430.154419,322.986969 
	C427.673767,329.808441 425.430237,336.716125 422.878845,344.287018 
	C430.463623,344.287018 437.402527,344.287018 445.289856,344.286621 
z" />
    <path fill="#FF0201" opacity="1.000000" stroke="none" d="
M95.823250,494.992096 
	C73.076569,490.619476 56.636810,477.488403 45.431709,457.731110 
	C36.727077,442.382812 32.719936,425.454620 29.897635,408.102051 
	C24.110126,372.518433 26.394957,336.694244 26.120783,300.953979 
	C26.031118,289.265381 26.664944,277.480499 28.145838,265.890137 
	C30.945141,243.981079 37.055992,223.199219 54.080906,207.600311 
	C57.959896,204.046234 62.893650,201.599731 67.482498,198.880661 
	C70.172630,197.286652 72.169411,195.769180 73.417412,192.435257 
	C80.350800,173.913391 89.229668,156.315063 100.412277,139.421570 
	C102.806244,141.290756 104.800301,143.443909 106.491470,145.880630 
	C95.520905,162.525803 87.153328,180.037140 80.349632,198.304749 
	C79.505417,200.571411 79.256569,203.171051 79.244881,205.618851 
	C79.156639,224.105377 79.598778,242.603592 79.090942,261.076599 
	C78.507034,282.317017 81.942375,302.732727 88.631531,322.842072 
	C94.129807,339.371338 100.175369,355.907593 100.273659,373.670868 
	C100.465340,408.310760 100.434280,442.951904 100.523186,477.592438 
	C100.528259,479.571167 100.782158,481.549225 100.722191,483.836792 
	C99.715714,488.090118 102.424713,493.558746 95.823250,494.992096 
M77.015358,266.893433 
	C76.665497,266.570465 76.324974,265.976746 75.964409,265.964294 
	C67.488159,265.671997 58.995270,265.036469 50.536613,265.338196 
	C44.493698,265.553741 40.293118,269.309265 38.973034,275.350372 
	C37.984699,279.873322 37.289482,284.525330 37.099686,289.145996 
	C36.435474,305.316833 39.714024,321.005493 44.492817,336.266541 
	C51.983200,360.187012 55.392555,384.453400 54.386627,409.538025 
	C53.673008,427.333374 54.190308,445.180969 54.349136,463.003540 
	C54.363350,464.598358 55.784531,466.180664 56.552277,467.768768 
	C57.236561,466.247284 58.510757,464.728363 58.517273,463.203979 
	C58.627594,437.384857 58.698685,411.564301 58.528465,385.745728 
	C58.405067,367.029144 52.268391,349.460663 47.553238,331.641296 
	C43.148083,314.993439 39.696075,298.262939 41.984402,280.881226 
	C43.146255,272.056000 46.142036,269.161102 54.924320,269.164764 
	C60.747578,269.167206 66.572037,269.743622 72.392937,269.695679 
	C73.989906,269.682526 75.575996,268.346100 77.015358,266.893433 
M70.078529,437.789642 
	C70.063873,443.276855 69.841133,448.775696 70.147232,454.244934 
	C70.254601,456.163361 71.149773,458.988281 72.559685,459.724487 
	C80.089478,463.656158 87.896103,467.057648 96.611076,471.109283 
	C96.611076,463.852234 96.611069,458.233643 96.611069,452.615021 
	C96.611069,446.843414 96.611076,441.071808 96.611076,434.949860 
	C88.095901,434.949860 80.297752,434.894653 72.503052,435.033112 
	C71.700256,435.047363 70.917999,436.217529 70.078529,437.789642 
M82.475342,355.923889 
	C77.175095,355.923889 71.874855,355.923889 66.679726,355.923889 
	C67.970551,365.359161 69.199402,374.341431 70.441910,383.423492 
	C79.018135,383.423492 87.415688,383.423492 95.696899,383.423492 
	C95.696899,377.610626 96.097313,372.123322 95.612427,366.715363 
	C94.643242,355.906097 94.442909,355.924072 82.475342,355.923889 
M95.007309,422.935760 
	C95.475151,422.532959 96.347649,422.133820 96.351303,421.726898 
	C96.429680,412.981659 96.410843,404.235504 96.410843,395.386292 
	C87.368835,395.386292 78.958397,395.386292 70.329659,395.386292 
	C70.329659,404.672974 70.329659,413.676025 70.329659,422.993134 
	C78.509621,422.993134 86.302246,422.993134 95.007309,422.935760 
M51.274578,307.147675 
	C52.124546,307.757233 52.966621,308.883331 53.825706,308.896454 
	C62.427658,309.027954 71.032410,308.976349 79.862038,308.976349 
	C78.466690,300.402130 77.272125,292.241821 75.662193,284.164307 
	C75.451332,283.106354 73.140808,281.821381 71.750687,281.756470 
	C65.956551,281.485779 60.126667,281.901764 54.341236,281.550171 
	C50.394226,281.310333 49.253983,283.206970 49.468292,286.464020 
	C49.903255,293.074768 50.548969,299.671692 51.274578,307.147675 
M56.669563,326.755676 
	C58.497513,331.567169 60.231365,336.418060 62.219109,341.162598 
	C62.720310,342.358917 64.010544,344.067810 64.977310,344.093933 
	C73.497765,344.324219 82.027061,344.227478 91.125397,344.227478 
	C88.539627,336.582489 86.332062,329.811157 83.895813,323.123169 
	C83.541214,322.149719 82.106560,320.933807 81.150116,320.914795 
	C72.537811,320.743591 63.920696,320.814758 54.601028,320.814758 
	C55.319271,322.980927 55.824654,324.505127 56.669563,326.755676 
z" />
    <path fill="#F8CC01" opacity="1.000000" stroke="none" d="
M413.977234,138.683334 
	C411.751434,141.024017 409.669678,143.054733 407.136658,145.532196 
	C392.479401,161.093246 378.241241,176.177490 364.077728,191.331467 
	C352.979156,203.206161 341.972961,215.167175 330.925720,227.089844 
	C328.989136,229.107239 327.052551,231.124634 324.682861,233.602097 
	C322.206299,236.056046 320.162811,238.049911 318.119354,240.043762 
	C315.758392,228.666611 313.485168,217.270386 311.016266,205.916687 
	C307.168091,188.220444 303.187073,170.553070 299.570099,152.368347 
	C323.045227,137.354065 346.218384,122.854057 369.363678,108.309769 
	C370.574860,107.548668 371.549408,106.410995 372.981873,105.492500 
	C375.618958,104.031830 377.908264,102.527283 380.197540,101.022736 
	C393.291626,92.688210 406.354004,84.303307 419.487152,76.030762 
	C440.002411,63.108212 460.478699,50.118317 481.211609,37.553089 
	C484.001862,35.862038 488.224030,35.926819 491.716309,36.163696 
	C495.561523,36.424519 497.595551,43.282581 495.307526,48.125301 
	C493.936920,51.026283 492.201324,53.877804 490.097412,56.286552 
	C483.483337,63.859047 476.683746,71.273254 469.835052,78.636269 
	C455.328491,94.232262 440.739746,109.751785 426.197235,125.314392 
	C422.149292,129.646286 418.145386,134.019241 413.977234,138.683334 
z" />
    <path fill="#F8CC01" opacity="1.000000" stroke="none" d="
M106.794365,145.597076 
	C104.800301,143.443909 102.806244,141.290756 100.489479,139.065826 
	C95.026299,133.411316 89.930626,127.786507 84.736076,122.254555 
	C73.644547,110.442566 62.416351,98.757812 51.405956,86.871056 
	C41.905392,76.614311 32.596195,66.179192 23.288816,55.745842 
	C21.913300,54.203911 21.041328,52.219017 19.890078,50.469536 
	C17.190563,46.367252 16.965548,42.069996 19.622124,38.023869 
	C21.360657,35.375984 28.644535,34.936375 32.543335,37.277706 
	C40.871872,42.279228 49.007576,47.600861 57.250164,52.746685 
	C82.101311,68.261192 106.967545,83.751511 131.813538,99.274254 
	C132.357193,99.613907 132.728760,100.228989 133.663361,101.185524 
	C136.479919,103.066101 138.813721,104.476746 141.352783,106.081207 
	C165.950958,121.568436 190.343903,136.861847 214.736847,152.155258 
	C208.688217,179.673584 202.635056,207.190918 196.603561,234.712997 
	C196.286026,236.161987 196.152039,237.651184 195.610336,239.402374 
	C193.278717,237.693619 191.269363,235.704147 189.260010,233.714661 
	C187.391541,231.627563 185.523087,229.540482 183.260773,226.947174 
	C167.437180,209.962555 152.031128,193.461868 136.569153,177.013748 
	C126.686996,166.501328 116.722145,156.066620 106.794365,145.597076 
z" />
    <path fill="#FF0100" opacity="1.000000" stroke="none" d="
M201.975433,19.850971 
	C202.685928,19.243954 203.396423,18.636938 204.745911,18.189322 
	C207.156418,19.485237 209.223969,20.335215 210.648880,21.807259 
	C217.252884,28.629736 223.561707,35.741539 230.269012,42.457333 
	C231.573166,43.763130 234.174622,44.270279 236.186859,44.291908 
	C250.162872,44.442131 264.141998,44.431267 278.118195,44.286812 
	C279.978912,44.267578 282.383820,43.752617 283.591339,42.532005 
	C290.150024,35.902195 296.509521,29.066076 302.727875,22.113396 
	C305.203735,19.345160 307.767853,17.865358 311.454742,19.084362 
	C311.454742,19.084362 311.830048,19.287069 311.816162,19.817253 
	C310.981232,22.565458 310.685638,25.233212 309.242798,26.919086 
	C304.483673,32.479816 299.553253,37.945133 294.220551,42.948170 
	C289.658112,47.228546 286.389435,51.310616 290.604950,57.539753 
	C290.779327,57.797432 290.783356,58.176163 290.846771,58.502380 
	C295.797424,83.971046 300.713409,109.446541 305.731232,134.901962 
	C306.456787,138.582779 305.506409,140.064911 301.545593,140.051727 
	C271.902802,139.953049 242.259369,139.959076 212.616486,140.045746 
	C208.694061,140.057205 207.805817,138.787735 208.593491,134.936066 
	C212.025650,118.153214 215.042694,101.285538 218.464859,84.500534 
	C220.684570,73.613228 223.426163,62.832676 225.690430,51.953613 
	C225.946945,50.721088 224.948257,48.864784 223.979950,47.798874 
	C217.822372,41.020649 211.342789,34.527851 205.351669,27.609871 
	C203.589478,25.575033 203.066391,22.467104 201.975433,19.850971 
z" />
    <path fill="#F8CB01" opacity="1.000000" stroke="none" d="
M201.650177,19.996407 
	C203.066391,22.467104 203.589478,25.575033 205.351669,27.609871 
	C211.342789,34.527851 217.822372,41.020649 223.979950,47.798874 
	C224.948257,48.864784 225.946945,50.721088 225.690430,51.953613 
	C223.426163,62.832676 220.684570,73.613228 218.464859,84.500534 
	C215.042694,101.285538 212.025650,118.153214 208.593491,134.936066 
	C207.805817,138.787735 208.694061,140.057205 212.616486,140.045746 
	C242.259369,139.959076 271.902802,139.953049 301.545593,140.051727 
	C305.506409,140.064911 306.456787,138.582779 305.731232,134.901962 
	C300.713409,109.446541 295.797424,83.971046 290.846771,58.502380 
	C290.783356,58.176163 290.779327,57.797432 290.604950,57.539753 
	C286.389435,51.310616 289.658112,47.228546 294.220551,42.948170 
	C299.553253,37.945133 304.483673,32.479816 309.242798,26.919086 
	C310.685638,25.233212 310.981232,22.565458 311.848755,19.922724 
	C317.468506,24.481272 318.531311,31.408178 320.015076,38.181313 
	C322.211212,48.206539 324.502625,58.210896 326.772614,68.973434 
	C326.426300,72.444832 326.060822,75.166939 325.468781,78.167679 
	C319.849365,97.478729 314.299133,116.468880 309.170685,135.572266 
	C307.830261,140.565399 305.421570,142.123444 300.396881,142.088898 
	C271.588440,141.890762 242.777023,141.873642 213.969009,142.100937 
	C208.716980,142.142365 206.313400,140.500610 204.916580,135.338104 
	C199.709167,116.092262 194.034882,96.972763 188.483887,77.423950 
	C188.202576,74.381332 187.973160,71.720596 187.743744,69.059868 
	C190.523605,55.646175 193.101074,42.184925 196.233078,28.853962 
	C196.968445,25.723927 199.577759,23.034157 201.650177,19.996407 
z" />
    <path fill="#FF0100" opacity="1.000000" stroke="none" d="
M289.176147,469.991577 
	C292.344604,483.831116 287.867401,493.527679 272.988800,496.761932 
	C262.363098,499.071716 251.463547,498.769501 240.635101,496.357758 
	C226.546051,493.219788 223.247742,483.139526 225.886505,470.017395 
	C226.739883,465.473297 227.223816,461.684418 228.003830,457.957520 
	C230.888687,444.173279 233.500977,430.315186 236.973877,416.677917 
	C238.702179,409.891266 242.763824,404.013702 248.676559,399.755890 
	C253.706635,396.133728 259.200714,395.519623 263.852234,399.545319 
	C268.023346,403.155243 272.348053,407.436523 274.497772,412.344543 
	C278.192505,420.779999 280.665253,429.830627 282.880676,438.812988 
	C285.417389,449.097748 287.114349,459.589661 289.176147,469.991577 
z" />
    <path fill="#F8CC04" opacity="1.000000" stroke="none" d="
M182.962967,435.810059 
	C182.979965,440.899689 182.996979,445.989319 183.086792,451.541992 
	C183.056458,455.196503 182.953308,458.387909 182.431183,461.424133 
	C181.482452,457.607574 178.910446,457.073059 175.828461,457.083435 
	C163.590530,457.124756 151.350998,457.008148 139.115768,457.194305 
	C137.162262,457.224030 135.227737,458.502075 133.288940,458.719238 
	C133.301498,428.985016 133.373337,399.734253 133.242065,370.484406 
	C133.224411,366.548279 132.183563,362.616791 132.041321,358.888611 
	C133.246109,359.357056 134.025101,359.845795 134.806244,359.849274 
	C148.281723,359.909576 161.759216,360.013306 175.230896,359.787323 
	C176.834015,359.760468 178.405762,357.863159 180.238220,357.137939 
	C181.216782,363.336731 182.483307,369.221344 182.584549,375.125916 
	C182.931320,395.350159 182.869171,415.581451 182.962967,435.810059 
z" />
    <path fill="#F8CC02" opacity="1.000000" stroke="none" d="
M330.909912,452.446655 
	C331.048950,446.334381 331.258667,440.664948 331.357971,434.196960 
	C331.351837,431.074432 331.533264,428.750885 331.548309,426.426300 
	C331.677856,406.433655 331.535370,386.434357 332.070007,366.452972 
	C332.191101,361.926178 334.632568,357.461426 336.017395,353.395020 
	C334.969330,358.276764 337.077545,359.955841 341.284729,359.946014 
	C353.225067,359.918060 365.165802,359.976990 377.105621,359.894470 
	C378.880554,359.882233 380.651489,359.290802 382.335876,359.449463 
	C381.727509,364.381531 380.775696,368.829712 380.757660,373.281677 
	C380.641479,401.935486 380.729675,430.590149 380.438721,459.022217 
	C378.462036,458.234070 376.802887,457.196899 375.131989,457.177673 
	C362.979279,457.037781 350.823944,457.153564 338.670197,457.071564 
	C335.139557,457.047760 332.847504,458.186310 332.407166,462.001282 
	C332.256836,462.002625 331.957367,462.029968 331.957367,462.029968 
	C331.631775,458.983124 331.306213,455.936279 330.909912,452.446655 
z" />
    <path fill="#F8CB02" opacity="1.000000" stroke="none" d="
M289.613159,469.979675 
	C287.114349,459.589661 285.417389,449.097748 282.880676,438.812988 
	C280.665253,429.830627 278.192505,420.779999 274.497772,412.344543 
	C272.348053,407.436523 268.023346,403.155243 263.852234,399.545319 
	C259.200714,395.519623 253.706635,396.133728 248.676559,399.755890 
	C242.763824,404.013702 238.702179,409.891266 236.973877,416.677917 
	C233.500977,430.315186 230.888687,444.173279 228.003830,457.957520 
	C227.223816,461.684418 226.739883,465.473297 225.965805,469.608002 
	C222.868073,469.966431 219.924591,469.950562 216.541428,469.884460 
	C215.316269,467.489166 214.530777,465.144043 213.796692,461.962860 
	C215.288803,451.416718 216.241776,441.602722 218.283035,432.020630 
	C221.448242,417.162506 225.616333,402.538361 235.575974,390.478149 
	C247.492828,376.048035 266.780182,375.694336 278.139679,390.543121 
	C283.587433,397.664307 288.286133,406.094910 290.660248,414.670013 
	C294.946228,430.150787 297.231140,446.185547 300.351746,461.988953 
	C299.732269,464.414612 299.112793,466.840240 298.251221,469.549774 
	C295.356079,469.878357 292.703125,469.923096 289.613159,469.979675 
z" />
    <path fill="#F8CB00" opacity="1.000000" stroke="none" d="
M311.176697,18.803909 
	C307.767853,17.865358 305.203735,19.345160 302.727875,22.113396 
	C296.509521,29.066076 290.150024,35.902195 283.591339,42.532005 
	C282.383820,43.752617 279.978912,44.267578 278.118195,44.286812 
	C264.141998,44.431267 250.162872,44.442131 236.186859,44.291908 
	C234.174622,44.270279 231.573166,43.763130 230.269012,42.457333 
	C223.561707,35.741539 217.252884,28.629736 210.648880,21.807259 
	C209.223969,20.335215 207.156418,19.485237 205.043243,18.213188 
	C209.091766,16.718103 213.466110,14.244701 217.874680,14.182068 
	C243.994781,13.810973 270.126648,13.769260 296.244812,14.203120 
	C301.151978,14.284636 306.015137,17.015276 311.176697,18.803909 
z" />
    <path fill="#F8C608" opacity="1.000000" stroke="none" d="
M96.011673,495.332001 
	C102.424713,493.558746 99.715714,488.090118 101.112381,483.810455 
	C105.646492,481.425507 109.653168,479.484009 113.525139,477.303314 
	C120.840958,473.183105 128.347809,469.255890 133.019989,462.007019 
	C135.301208,463.287445 137.396133,464.962891 139.514587,464.993195 
	C153.366608,465.191254 167.223740,465.033203 181.079193,464.991486 
	C179.674393,471.023132 175.312775,474.927856 170.434387,477.736053 
	C158.535843,484.585144 146.613007,491.551849 134.101700,497.129150 
	C122.878250,502.132355 110.929741,500.987305 99.394867,496.766693 
	C98.337921,496.379944 97.265381,496.035828 96.011673,495.332001 
z" />
    <path fill="#F9C608" opacity="1.000000" stroke="none" d="
M413.184998,484.015472 
	C413.329010,485.795563 413.594055,487.575867 413.590973,489.355713 
	C413.585205,492.706360 414.983124,494.649780 418.882385,494.842285 
	C404.808838,501.220428 390.214844,502.705597 375.743713,495.246704 
	C365.113770,489.767670 354.661621,483.928619 344.284119,477.981445 
	C339.348450,475.152893 335.258789,471.250244 333.174438,465.215210 
	C333.497284,464.477631 333.641937,464.326385 334.163147,464.368347 
	C348.787384,464.718781 363.035614,464.965546 377.281952,464.882538 
	C378.580017,464.874939 379.865692,462.752075 381.419647,461.841736 
	C384.712280,465.250000 387.285645,469.131622 390.868835,471.457428 
	C398.014252,476.095306 405.714142,479.878998 413.184998,484.015472 
z" />
    <path fill="#FF0403" opacity="1.000000" stroke="none" d="
M187.379272,69.053848 
	C187.973160,71.720596 188.202576,74.381332 188.093964,77.561264 
	C170.593582,84.623650 154.959579,93.728569 141.147537,105.887383 
	C138.813721,104.476746 136.479919,103.066101 133.964172,101.345718 
	C143.242783,94.152817 152.341537,86.680664 162.280334,80.576218 
	C169.980545,75.846718 178.731140,72.827385 187.379272,69.053848 
z" />
    <path fill="#FF0403" opacity="1.000000" stroke="none" d="
M325.695374,77.889038 
	C326.060822,75.166939 326.426300,72.444832 326.939087,69.326797 
	C335.015961,72.612442 343.358429,75.617195 350.774323,80.140846 
	C360.847321,86.285294 370.211578,93.591537 380.038696,100.711113 
	C377.908264,102.527283 375.618958,104.031830 372.656006,105.263107 
	C358.095123,93.322968 342.686432,84.254707 325.695374,77.889038 
z" />
    <path fill="#FF0600" opacity="1.000000" stroke="none" d="
M181.044632,464.992798 
	C167.223740,465.033203 153.366608,465.191254 139.514587,464.993195 
	C137.396133,464.962891 135.301208,463.287445 133.053528,461.699036 
	C133.035934,460.417816 133.160202,459.810455 133.284454,459.203064 
	C135.227737,458.502075 137.162262,457.224030 139.115768,457.194305 
	C151.350998,457.008148 163.590530,457.124756 175.828461,457.083435 
	C178.910446,457.073059 181.482452,457.607574 182.074493,461.650818 
	C182.088730,462.227295 182.040726,462.421936 181.668701,463.085327 
	C181.235413,464.057007 181.126129,464.559967 181.016830,465.062897 
	C181.016830,465.062897 181.010071,464.994080 181.044632,464.992798 
z" />
    <path fill="#F9C608" opacity="1.000000" stroke="none" d="
M331.986145,462.379761 
	C331.957367,462.029968 332.256836,462.002625 332.556458,462.276581 
	C333.166229,463.092072 333.476410,463.633606 333.786621,464.175110 
	C333.641937,464.326385 333.497284,464.477631 333.135284,464.855408 
	C332.616943,464.297791 332.315948,463.513672 331.986145,462.379761 
z" />
    <path fill="#F8C608" opacity="1.000000" stroke="none" d="
M181.304626,464.973785 
	C181.126129,464.559967 181.235413,464.057007 181.587296,463.374817 
	C181.750732,463.758575 181.671585,464.321625 181.304626,464.973785 
z" />
    <path fill="#FFFEFD" opacity="1.000000" stroke="none" d="
M133.288940,458.719269 
	C133.160202,459.810455 133.035934,460.417816 132.878113,461.333191 
	C128.347809,469.255890 120.840958,473.183105 113.525139,477.303314 
	C109.653168,479.484009 105.646492,481.425507 101.310432,483.501282 
	C100.782158,481.549225 100.528259,479.571167 100.523186,477.592438 
	C100.434280,442.951904 100.465340,408.310760 100.273659,373.670868 
	C100.175369,355.907593 94.129807,339.371338 88.631531,322.842072 
	C81.942375,302.732727 78.507034,282.317017 79.090942,261.076599 
	C79.598778,242.603592 79.156639,224.105377 79.244881,205.618851 
	C79.256569,203.171051 79.505417,200.571411 80.349632,198.304749 
	C87.153328,180.037140 95.520905,162.525803 106.491470,145.880630 
	C116.722145,156.066620 126.686996,166.501328 136.569153,177.013748 
	C152.031128,193.461868 167.437180,209.962555 183.004486,226.756592 
	C159.082764,236.043335 135.023270,245.013931 110.964828,253.987396 
	C109.881714,254.391388 108.808350,254.821518 107.090988,255.533142 
	C100.537384,258.948090 98.038658,264.064545 98.022568,270.530457 
	C97.987869,284.479797 97.833397,298.433655 98.154205,312.375824 
	C98.238136,316.023621 99.885551,319.635498 100.814919,323.263855 
	C100.985741,323.670807 101.156570,324.077728 101.597107,324.985474 
	C102.237534,325.681122 102.608246,325.875977 102.978951,326.070862 
	C102.978951,326.070862 102.984711,326.005188 102.891022,326.375488 
	C107.106842,331.287079 111.443420,335.803009 115.718849,340.376160 
	C120.767700,345.776611 125.763657,351.226562 130.856720,356.933716 
	C131.159424,357.702606 131.387955,358.192871 131.616501,358.683136 
	C132.183563,362.616791 133.224411,366.548279 133.242065,370.484406 
	C133.373337,399.734253 133.301498,428.985016 133.288940,458.719269 
M136.790192,235.685806 
	C138.100204,234.968109 139.478394,234.350967 140.709213,233.516449 
	C148.967606,227.917053 152.239502,217.212875 148.585297,207.917191 
	C144.996170,198.787018 135.285904,193.054047 125.866348,194.503860 
	C113.184944,196.455719 104.869064,208.138535 107.599861,220.166092 
	C110.564354,233.222931 122.593681,239.901321 136.790192,235.685806 
z" />
    <path fill="#FFFDFD" opacity="1.000000" stroke="none" d="
M413.309509,483.559448 
	C405.714142,479.878998 398.014252,476.095306 390.868835,471.457428 
	C387.285645,469.131622 384.712280,465.250000 381.389343,461.543091 
	C380.981293,460.424286 380.866028,459.834412 380.750763,459.244507 
	C380.729675,430.590149 380.641479,401.935486 380.757660,373.281677 
	C380.775696,368.829712 381.727509,364.381531 382.466370,359.305786 
	C382.901154,358.109497 383.117126,357.539001 383.578552,356.759583 
	C388.456451,351.417908 393.075684,346.273132 397.725006,341.155731 
	C402.482300,335.919495 407.269073,330.709991 412.042908,325.488800 
	C412.736084,324.275330 413.429260,323.061829 414.413574,321.229523 
	C415.114777,318.673004 415.866425,316.737823 415.880737,314.797211 
	C415.994446,299.406158 416.161957,284.010651 415.887268,268.624115 
	C415.780212,262.629181 412.780945,257.908630 406.871521,255.556076 
	C381.747253,246.212509 356.623016,236.868942 331.212219,227.307602 
	C341.972961,215.167175 352.979156,203.206161 364.077728,191.331467 
	C378.241241,176.177490 392.479401,161.093246 406.930359,145.817337 
	C418.723877,162.464264 427.122742,180.840179 434.119537,199.907272 
	C434.510742,200.973328 434.695282,202.179199 434.687958,203.318146 
	C434.512268,230.608032 435.399994,257.968872 433.643433,285.158508 
	C432.706879,299.655182 428.128265,314.166504 423.519348,328.118164 
	C416.390381,349.698425 412.842804,371.469238 413.332001,394.228912 
	C413.968475,423.840790 413.453491,453.477448 413.309509,483.559448 
M380.307556,236.707047 
	C397.922089,240.203018 408.974457,225.096161 406.601410,212.292770 
	C404.632721,201.671188 395.643066,194.134155 385.202545,194.255554 
	C374.939514,194.374908 365.900574,202.071442 364.166077,212.167877 
	C362.330750,222.851105 368.437073,232.498917 380.307556,236.707047 
z" />
    <path fill="#FFFBFA" opacity="1.000000" stroke="none" d="
M300.750702,461.978760 
	C297.231140,446.185547 294.946228,430.150787 290.660248,414.670013 
	C288.286133,406.094910 283.587433,397.664307 278.139679,390.543121 
	C266.780182,375.694336 247.492828,376.048035 235.575974,390.478149 
	C225.616333,402.538361 221.448242,417.162506 218.283035,432.020630 
	C216.241776,441.602722 215.288803,451.416718 213.741623,461.557922 
	C211.806992,461.912170 209.943741,462.035461 208.157043,461.722137 
	C201.841904,460.614716 200.211670,458.572662 200.211548,452.137970 
	C200.210953,420.665924 200.240280,389.193787 200.162949,357.721924 
	C200.155838,354.824860 200.568192,352.949371 203.626297,351.531464 
	C220.348923,343.777771 236.904678,335.664307 253.623047,327.901184 
	C255.387970,327.081604 258.170044,327.021698 259.921417,327.826050 
	C276.672668,335.519684 293.262695,343.564117 310.005615,351.276398 
	C313.112976,352.707703 313.874207,354.513092 313.861298,357.734772 
	C313.739319,388.207214 313.520660,418.684021 313.936584,449.151276 
	C314.078827,459.574097 312.187561,460.969269 300.750702,461.978760 
M250.868927,340.311462 
	C245.124023,342.912018 239.374496,345.502411 233.635422,348.115784 
	C226.525238,351.353485 226.528992,351.361725 227.235229,359.928650 
	C235.998734,356.152374 244.573029,352.255524 253.330856,348.827515 
	C255.489212,347.982727 258.530243,347.933990 260.676239,348.772034 
	C269.440918,352.194855 278.015991,356.103149 286.783661,359.885590 
	C287.451935,351.247528 287.446045,351.260681 280.348663,348.078094 
	C274.442810,345.429749 268.433197,342.976318 262.697540,339.997559 
	C258.801910,337.974426 255.289261,337.494629 250.868927,340.311462 
M226.940369,379.228821 
	C227.174088,382.706573 229.107483,380.677917 230.321564,380.163544 
	C237.818634,376.987152 245.352905,373.880157 252.712524,370.406281 
	C255.902084,368.900726 258.488098,369.075287 261.630615,370.535217 
	C269.844696,374.351318 278.236969,377.783752 286.735931,381.445770 
	C287.456757,372.910828 287.448669,372.928986 280.489899,369.828278 
	C273.810822,366.852173 267.229889,363.632629 260.433899,360.956635 
	C258.428131,360.166840 255.572174,360.191406 253.564590,360.992493 
	C246.316589,363.884491 239.366592,367.529694 232.097275,370.359314 
	C228.082550,371.922028 226.019562,373.983521 226.940369,379.228821 
z" />
    <path fill="#FFFCFB" opacity="1.000000" stroke="none" d="
M325.468781,78.167679 
	C342.686432,84.254707 358.095123,93.322968 372.308228,105.219223 
	C371.549408,106.410995 370.574860,107.548668 369.363678,108.309769 
	C346.218384,122.854057 323.045227,137.354065 299.567017,151.989777 
	C298.633942,147.800171 296.023590,146.655319 291.876251,146.681717 
	C268.549377,146.830139 245.220947,146.790695 221.893387,146.713715 
	C218.357040,146.702042 215.562683,147.258545 214.872131,151.771896 
	C190.343903,136.861847 165.950958,121.568436 141.352783,106.081207 
	C154.959579,93.728569 170.593582,84.623650 188.145874,77.943161 
	C194.034882,96.972763 199.709167,116.092262 204.916580,135.338104 
	C206.313400,140.500610 208.716980,142.142365 213.969009,142.100937 
	C242.777023,141.873642 271.588440,141.890762 300.396881,142.088898 
	C305.421570,142.123444 307.830261,140.565399 309.170685,135.572266 
	C314.299133,116.468880 319.849365,97.478729 325.468781,78.167679 
z" />
    <path fill="#FFFDFD" opacity="1.000000" stroke="none" d="
M317.975006,240.351685 
	C320.162811,238.049911 322.206299,236.056046 324.530762,233.888596 
	C347.714722,242.137024 370.617737,250.559036 394.407349,259.307068 
	C352.475616,280.840698 308.289062,287.749847 261.524994,288.899384 
	C280.848541,272.343964 299.339600,256.501801 317.975006,240.351685 
z" />
    <path fill="#FFFDFD" opacity="1.000000" stroke="none" d="
M188.878418,233.837738 
	C191.269363,235.704147 193.278717,237.693619 195.577591,239.821060 
	C206.279831,249.018082 216.666840,258.106934 227.113525,267.126678 
	C235.259094,274.159637 243.478836,281.106720 252.603271,288.891998 
	C205.831726,287.740692 161.644455,280.826080 119.645668,259.359283 
	C143.132874,250.695084 165.814850,242.327942 188.878418,233.837738 
z" />
    <path fill="#F8CB00" opacity="1.000000" stroke="none" d="
M100.837326,322.839050 
	C99.885551,319.635498 98.238136,316.023621 98.154205,312.375824 
	C97.833397,298.433655 97.987869,284.479797 98.022568,270.530457 
	C98.038658,264.064545 100.537384,258.948090 106.813324,255.714493 
	C105.855408,259.269653 107.321121,261.675720 110.609810,263.308624 
	C118.943535,267.446442 127.192329,271.766357 135.635086,275.667175 
	C138.338684,276.916290 139.282181,278.342377 139.248489,281.240540 
	C139.109360,293.212280 139.190186,305.186554 139.190186,317.877472 
	C131.359726,317.877472 123.434929,317.876801 115.510132,317.877777 
	C112.346848,317.878143 109.182838,317.925293 106.020485,317.872314 
	C102.879021,317.819672 100.834831,318.916199 100.837326,322.839050 
z" />
    <path fill="#F8CB00" opacity="1.000000" stroke="none" d="
M406.906738,255.991425 
	C412.780945,257.908630 415.780212,262.629181 415.887268,268.624115 
	C416.161957,284.010651 415.994446,299.406158 415.880737,314.797211 
	C415.866425,316.737823 415.114777,318.673004 414.446838,320.915405 
	C412.026276,320.106323 409.891388,318.098175 407.696320,318.030090 
	C396.934570,317.696228 386.156830,317.878632 374.839111,317.878632 
	C374.839111,304.601471 374.744080,291.855652 374.999023,279.116852 
	C375.022247,277.955536 377.113770,276.498688 378.544525,275.758087 
	C386.797882,271.485870 395.145264,267.395447 403.452332,263.226685 
	C406.256073,261.819672 407.936707,259.800537 406.906738,255.991425 
z" />
    <path fill="#F8CA00" opacity="1.000000" stroke="none" d="
M354.982727,291.385315 
	C356.049591,299.622314 353.225952,304.621521 345.487915,307.574066 
	C337.136078,310.760834 329.315643,315.316345 321.087585,318.867493 
	C318.936127,319.796021 315.883545,319.942596 313.671844,319.191254 
	C305.661438,316.470154 297.781372,313.336273 289.979034,310.056305 
	C288.442627,309.410492 286.696136,307.581940 286.376648,306.025726 
	C285.219330,300.389008 291.534393,292.392822 297.217987,291.401917 
	C314.358765,288.413513 331.468933,285.247314 348.626984,282.364502 
	C349.928284,282.145844 352.126526,283.234955 352.827179,284.378357 
	C353.996185,286.286133 354.291107,288.729553 354.982727,291.385315 
z" />
    <path fill="#F8CA00" opacity="1.000000" stroke="none" d="
M179.947617,286.074951 
	C191.692017,287.817719 202.986145,289.807068 214.363098,291.019073 
	C219.388077,291.554352 222.683670,293.601288 225.244110,297.655975 
	C229.814468,304.893555 228.729172,308.388153 220.775391,311.479523 
	C213.965073,314.126465 207.216751,316.961060 200.294891,319.275696 
	C198.207016,319.973846 195.333466,319.885559 193.328644,319.002411 
	C183.907394,314.852295 174.648453,310.331024 165.360748,305.881348 
	C158.441360,302.566284 156.270233,288.134888 162.017014,282.961121 
	C162.837418,282.222534 164.752441,282.258789 166.025360,282.543091 
	C170.558884,283.555573 175.033890,284.830109 179.947617,286.074951 
z" />
    <path fill="#F8CA02" opacity="1.000000" stroke="none" d="
M411.573181,325.586731 
	C407.269073,330.709991 402.482300,335.919495 397.725006,341.155731 
	C393.075684,346.273132 388.456451,351.417908 383.528748,356.361267 
	C383.038666,352.230499 380.341766,351.900238 377.260406,351.906769 
	C363.783844,351.935486 350.307159,351.905273 336.657349,351.545197 
	C337.674255,348.949280 338.864319,346.704620 340.054413,344.459961 
	C347.800995,340.727234 355.594666,337.087463 363.263885,333.202026 
	C365.410919,332.114258 367.094635,330.145813 369.167908,328.868713 
	C371.102936,327.676727 373.250824,326.077728 375.343506,326.018585 
	C387.257111,325.681793 399.182220,325.752472 411.573181,325.586731 
z" />
    <path fill="#F8CA02" opacity="1.000000" stroke="none" d="
M130.782562,356.655060 
	C125.763657,351.226562 120.767700,345.776611 115.718849,340.376160 
	C111.443420,335.803009 107.106842,331.287079 102.864052,326.394470 
	C115.191917,325.992096 127.453056,325.924469 139.714233,325.918396 
	C140.822464,325.917847 142.448196,325.917267 142.960876,326.585907 
	C149.636475,335.291901 160.494797,336.812378 169.163910,342.054138 
	C170.553909,342.894623 171.892380,343.820221 173.651215,345.194000 
	C174.410675,345.752960 174.773621,345.824402 175.136551,345.895813 
	C175.136551,345.895813 175.058624,345.900208 174.988220,346.228882 
	C176.002991,348.512238 177.088150,350.466888 177.695694,352.292419 
	C163.451370,352.085052 149.684570,352.022522 135.918091,351.917114 
	C132.661316,351.892181 131.005096,353.461426 130.782562,356.655060 
z" />
    <path fill="#FFEFEF" opacity="1.000000" stroke="none" d="
M287.905792,317.032715 
	C278.715820,313.494537 269.973083,309.843628 261.041565,306.735138 
	C258.534027,305.862427 255.170654,305.781494 252.711823,306.703186 
	C234.992340,313.345154 217.435608,320.420685 199.732590,327.108124 
	C197.703979,327.874451 194.751968,327.823853 192.803040,326.916748 
	C176.842209,319.488098 161.017838,311.766235 145.151276,304.135010 
	C145.001648,304.063019 144.790466,304.056885 144.694260,303.945526 
	C143.642502,302.728210 142.607956,301.496002 141.568710,300.267853 
	C143.151474,300.224792 144.947983,299.672546 146.278244,300.230957 
	C150.867096,302.157379 155.289093,304.480103 159.782242,306.635986 
	C170.712662,311.880554 181.579590,317.267212 192.636978,322.229218 
	C194.871933,323.232117 198.157593,323.465912 200.409317,322.609497 
	C217.788101,315.999634 234.982178,308.903625 252.370026,302.318787 
	C254.991409,301.326050 258.634644,301.365265 261.272522,302.351654 
	C278.999084,308.980194 296.550415,316.076538 314.254089,322.768402 
	C316.262451,323.527557 319.196259,323.423798 321.140015,322.517395 
	C336.643646,315.287415 351.987122,307.714508 367.463348,300.424316 
	C368.876587,299.758606 370.874634,300.334473 372.601135,300.333801 
	C371.518524,301.555145 370.672791,303.260284 369.317200,303.924011 
	C353.358063,311.737427 337.357056,319.468597 321.260040,326.992462 
	C319.416901,327.853943 316.681915,328.007080 314.774689,327.326996 
	C305.864075,324.149567 297.098785,320.564636 287.905792,317.032715 
z" />
    <path fill="#FFFCF5" opacity="1.000000" stroke="none" d="
M339.717651,344.633545 
	C338.864319,346.704620 337.674255,348.949280 336.680359,351.574402 
	C336.876526,351.954865 336.943939,351.923553 336.612793,351.841431 
	C336.172638,352.177155 336.063629,352.595062 335.980835,353.016785 
	C336.007019,353.020630 336.005981,352.968140 336.005981,352.968140 
	C334.632568,357.461426 332.191101,361.926178 332.070007,366.452972 
	C331.535370,386.434357 331.677856,406.433655 331.548309,426.426300 
	C331.533264,428.750885 331.351837,431.074432 331.237885,433.832306 
	C328.483765,438.872070 325.739319,443.477936 322.994843,448.083832 
	C322.587891,447.942963 322.180969,447.802094 321.774017,447.661224 
	C321.774017,446.246429 321.774048,444.831604 321.774048,443.416779 
	C321.773987,414.925018 321.834351,386.432922 321.694916,357.941864 
	C321.678070,354.501465 322.537415,352.475830 325.842987,351.144196 
	C330.457703,349.285187 334.877625,346.942719 339.717651,344.633545 
z" />
    <path fill="#FFFDFD" opacity="1.000000" stroke="none" d="
M178.173309,352.421539 
	C177.088150,350.466888 176.002991,348.512238 174.998672,346.191345 
	C180.415985,348.099670 185.789368,350.295074 191.044586,352.744019 
	C191.741501,353.068787 192.163940,354.683167 192.164230,355.700439 
	C192.172836,386.417419 192.112701,417.134369 192.051743,447.851318 
	C192.051514,447.966553 191.883728,448.081482 191.269943,448.870270 
	C188.571442,444.534393 186.015274,440.427246 183.211029,436.065063 
	C182.869171,415.581451 182.931320,395.350159 182.584549,375.125916 
	C182.483307,369.221344 181.216782,363.336731 180.233551,356.820740 
	C179.379578,354.939514 178.776443,353.680511 178.173309,352.421539 
z" />
    <path fill="#FFFDFD" opacity="1.000000" stroke="none" d="
M175.177322,345.515350 
	C174.773621,345.824402 174.410675,345.752960 173.928955,345.391876 
	C174.279480,345.113129 174.748795,345.124023 175.177322,345.515350 
z" />
    <path fill="#F8CA02" opacity="1.000000" stroke="none" d="
M102.896744,325.741119 
	C102.608246,325.875977 102.237534,325.681122 101.733070,325.160187 
	C102.004395,325.026550 102.409470,325.218964 102.896744,325.741119 
z" />
    <path fill="#FFECEC" opacity="1.000000" stroke="none" d="
M459.722656,403.000183 
	C459.722595,422.823517 459.723053,442.146820 459.721344,461.470123 
	C459.721252,462.635986 459.993408,463.908264 459.614532,464.938141 
	C459.225281,465.996338 458.192505,466.817749 457.441315,467.742767 
	C456.838196,466.859924 455.978546,466.050171 455.700653,465.074677 
	C455.392822,463.994232 455.610474,462.762299 455.610382,461.596313 
	C455.608948,444.438568 456.202301,427.255402 455.469025,410.129059 
	C454.394501,385.032623 457.959351,360.783813 465.393738,336.862793 
	C470.292023,321.102203 473.422363,304.924652 472.799957,288.235352 
	C472.160736,271.094788 469.514374,268.543518 452.594788,269.208038 
	C448.435303,269.371429 444.275177,269.758759 440.122070,269.681366 
	C439.054199,269.661469 438.011963,268.266815 436.957977,267.503693 
	C437.984619,266.905487 438.984558,265.845581 440.042328,265.784332 
	C446.690216,265.399292 453.351898,265.020813 460.007172,265.050964 
	C469.854279,265.095551 474.554169,269.349396 476.061127,279.186340 
	C478.740265,296.675171 475.682922,313.654480 471.457275,330.537598 
	C467.787231,345.200806 463.549927,359.768341 460.858368,374.612976 
	C459.214508,383.679291 460.018219,393.189392 459.722656,403.000183 
z" />
    <path fill="#F8C600" opacity="1.000000" stroke="none" d="
M417.391205,459.936371 
	C417.391541,451.499786 417.391541,443.551727 417.391541,435.267548 
	C426.301605,435.267548 434.696228,435.267548 443.853729,435.267548 
	C443.853729,442.290283 444.000183,449.369354 443.722687,456.431732 
	C443.670959,457.748108 442.190125,459.551453 440.903259,460.186340 
	C433.536804,463.820587 426.029755,467.169861 417.390869,471.160736 
	C417.390869,466.594269 417.390869,463.509552 417.391205,459.936371 
z" />
    <path fill="#F8C800" opacity="1.000000" stroke="none" d="
M445.290466,368.521240 
	C444.754791,373.728577 444.298370,378.499451 443.825287,383.444244 
	C435.066650,383.444244 426.661285,383.444244 417.252441,383.444244 
	C417.974060,374.808167 418.572540,366.564575 419.476959,358.354645 
	C419.576569,357.450287 421.413177,356.068817 422.470367,356.044403 
	C430.773102,355.852814 439.082245,355.938171 447.660645,355.938171 
	C446.837524,360.302429 446.103638,364.193604 445.290466,368.521240 
z" />
    <path fill="#F8C700" opacity="1.000000" stroke="none" d="
M436.914612,423.004700 
	C430.303314,423.004700 424.182312,423.004700 417.731873,423.004700 
	C417.731873,413.695709 417.731873,404.809204 417.731873,395.514038 
	C426.422211,395.514038 434.922913,395.514038 443.743774,395.514038 
	C443.743774,404.528748 443.743774,413.411560 443.743774,423.004700 
	C441.587128,423.004700 439.496002,423.004700 436.914612,423.004700 
z" />
    <path fill="#F8CA00" opacity="1.000000" stroke="none" d="
M436.123596,297.126892 
	C436.752411,293.417999 437.771576,290.139496 437.785065,286.856903 
	C437.804047,282.233582 439.986267,281.384796 444.033020,281.565826 
	C450.484711,281.854370 456.958771,281.642914 464.926514,281.642914 
	C464.136932,290.602234 463.471466,298.947327 462.538635,307.262421 
	C462.462341,307.942566 460.571960,308.895966 459.511200,308.913391 
	C451.198364,309.050079 442.882294,308.989105 433.995850,308.989105 
	C434.735657,304.901306 435.400391,301.228394 436.123596,297.126892 
z" />
    <path fill="#F8CA00" opacity="1.000000" stroke="none" d="
M444.815643,344.286804 
	C437.402527,344.287018 430.463623,344.287018 422.878845,344.287018 
	C425.430237,336.716125 427.673767,329.808441 430.154419,322.986969 
	C430.498322,322.041351 432.001678,320.918060 432.987793,320.899139 
	C441.564270,320.735107 450.145264,320.804535 459.634674,320.804535 
	C456.589691,328.671478 454.061340,335.823334 450.924896,342.697754 
	C450.401215,343.845459 447.235016,343.787476 444.815643,344.286804 
z" />
    <path fill="#FFE3E3" opacity="1.000000" stroke="none" d="
M77.091217,267.255188 
	C75.575996,268.346100 73.989906,269.682526 72.392937,269.695679 
	C66.572037,269.743622 60.747578,269.167206 54.924320,269.164764 
	C46.142036,269.161102 43.146255,272.056000 41.984402,280.881226 
	C39.696075,298.262939 43.148083,314.993439 47.553238,331.641296 
	C52.268391,349.460663 58.405067,367.029144 58.528465,385.745728 
	C58.698685,411.564301 58.627594,437.384857 58.517273,463.203979 
	C58.510757,464.728363 57.236561,466.247284 56.552280,467.768768 
	C55.784531,466.180664 54.363350,464.598358 54.349136,463.003540 
	C54.190308,445.180969 53.673008,427.333374 54.386627,409.538025 
	C55.392555,384.453400 51.983200,360.187012 44.492817,336.266541 
	C39.714024,321.005493 36.435474,305.316833 37.099686,289.145996 
	C37.289482,284.525330 37.984699,279.873322 38.973034,275.350372 
	C40.293118,269.309265 44.493698,265.553741 50.536613,265.338196 
	C58.995270,265.036469 67.488159,265.671997 75.964409,265.964294 
	C76.324974,265.976746 76.665497,266.570465 77.091217,267.255188 
z" />
    <path fill="#F8C600" opacity="1.000000" stroke="none" d="
M70.102371,437.320496 
	C70.917999,436.217529 71.700256,435.047363 72.503052,435.033112 
	C80.297752,434.894653 88.095901,434.949860 96.611076,434.949860 
	C96.611076,441.071808 96.611069,446.843414 96.611069,452.615021 
	C96.611069,458.233643 96.611076,463.852234 96.611076,471.109283 
	C87.896103,467.057648 80.089478,463.656158 72.559685,459.724487 
	C71.149773,458.988281 70.254601,456.163361 70.147232,454.244934 
	C69.841133,448.775696 70.063873,443.276855 70.102371,437.320496 
z" />
    <path fill="#F8C800" opacity="1.000000" stroke="none" d="
M82.969368,355.923889 
	C94.442909,355.924072 94.643242,355.906097 95.612427,366.715363 
	C96.097313,372.123322 95.696899,377.610626 95.696899,383.423492 
	C87.415688,383.423492 79.018135,383.423492 70.441910,383.423492 
	C69.199402,374.341431 67.970551,365.359161 66.679726,355.923889 
	C71.874855,355.923889 77.175095,355.923889 82.969368,355.923889 
z" />
    <path fill="#F8C700" opacity="1.000000" stroke="none" d="
M94.551094,422.964447 
	C86.302246,422.993134 78.509621,422.993134 70.329659,422.993134 
	C70.329659,413.676025 70.329659,404.672974 70.329659,395.386292 
	C78.958397,395.386292 87.368835,395.386292 96.410843,395.386292 
	C96.410843,404.235504 96.429680,412.981659 96.351303,421.726898 
	C96.347649,422.133820 95.475151,422.532959 94.551094,422.964447 
z" />
    <path fill="#F8CA00" opacity="1.000000" stroke="none" d="
M51.191196,306.710999 
	C50.548969,299.671692 49.903255,293.074768 49.468292,286.464020 
	C49.253983,283.206970 50.394226,281.310333 54.341236,281.550171 
	C60.126667,281.901764 65.956551,281.485779 71.750687,281.756470 
	C73.140808,281.821381 75.451332,283.106354 75.662193,284.164307 
	C77.272125,292.241821 78.466690,300.402130 79.862038,308.976349 
	C71.032410,308.976349 62.427658,309.027954 53.825706,308.896454 
	C52.966621,308.883331 52.124546,307.757233 51.191196,306.710999 
z" />
    <path fill="#F8CA00" opacity="1.000000" stroke="none" d="
M56.499798,326.392517 
	C55.824654,324.505127 55.319271,322.980927 54.601028,320.814758 
	C63.920696,320.814758 72.537811,320.743591 81.150116,320.914795 
	C82.106560,320.933807 83.541214,322.149719 83.895813,323.123169 
	C86.332062,329.811157 88.539627,336.582489 91.125397,344.227478 
	C82.027061,344.227478 73.497765,344.324219 64.977310,344.093933 
	C64.010544,344.067810 62.720310,342.358917 62.219109,341.162598 
	C60.231365,336.418060 58.497513,331.567169 56.499798,326.392517 
z" />
    <path fill="#FF0500" opacity="1.000000" stroke="none" d="
M177.695679,352.292419 
	C178.776443,353.680511 179.379578,354.939514 179.987396,356.515686 
	C178.405762,357.863159 176.834015,359.760468 175.230896,359.787323 
	C161.759216,360.013306 148.281723,359.909576 134.806244,359.849274 
	C134.025101,359.845795 133.246109,359.357056 132.041321,358.888611 
	C131.387955,358.192871 131.159424,357.702606 130.856720,356.933716 
	C131.005096,353.461426 132.661316,351.892181 135.918091,351.917114 
	C149.684570,352.022522 163.451370,352.085052 177.695679,352.292419 
z" />
    <path fill="#FF0600" opacity="1.000000" stroke="none" d="
M380.438721,459.022217 
	C380.866028,459.834412 380.981293,460.424286 381.126831,461.312805 
	C379.865692,462.752075 378.580017,464.874939 377.281952,464.882538 
	C363.035614,464.965546 348.787384,464.718781 334.163147,464.368347 
	C333.476410,463.633606 333.166229,463.092072 332.706787,462.275208 
	C332.847504,458.186310 335.139557,457.047760 338.670197,457.071564 
	C350.823944,457.153564 362.979279,457.037781 375.131989,457.177673 
	C376.802887,457.196899 378.462036,458.234070 380.438721,459.022217 
z" />
    <path fill="#FF0400" opacity="1.000000" stroke="none" d="
M336.853516,351.925659 
	C350.307159,351.905273 363.783844,351.935486 377.260406,351.906769 
	C380.341766,351.900238 383.038666,352.230499 383.283295,356.570190 
	C383.117126,357.539001 382.901154,358.109497 382.554749,358.823669 
	C380.651489,359.290802 378.880554,359.882233 377.105621,359.894470 
	C365.165802,359.976990 353.225067,359.918060 341.284729,359.946014 
	C337.077545,359.955841 334.969330,358.276764 336.017395,353.395020 
	C336.005981,352.968140 336.007019,353.020630 336.288574,352.994598 
	C336.694733,352.620239 336.819336,352.271881 336.943939,351.923553 
	C336.943939,351.923553 336.876526,351.954865 336.853516,351.925659 
z" />
    <path fill="#F8CB04" opacity="1.000000" stroke="none" d="
M136.412354,235.819061 
	C122.593681,239.901321 110.564354,233.222931 107.599861,220.166092 
	C104.869064,208.138535 113.184944,196.455719 125.866348,194.503860 
	C135.285904,193.054047 144.996170,198.787018 148.585297,207.917191 
	C152.239502,217.212875 148.967606,227.917053 140.709213,233.516449 
	C139.478394,234.350967 138.100204,234.968109 136.412354,235.819061 
M139.834335,215.587997 
	C139.481918,214.142151 139.356506,212.589539 138.735870,211.269836 
	C136.612091,206.753845 132.975235,204.555939 127.946007,204.787735 
	C123.081337,205.011917 119.801712,207.573929 118.150719,211.999939 
	C116.483749,216.468796 117.191544,221.091263 121.083595,223.681549 
	C123.946648,225.586960 128.157166,226.721924 131.534744,226.307114 
	C136.645157,225.679459 139.160278,221.462860 139.834335,215.587997 
z" />
    <path fill="#F8CB04" opacity="1.000000" stroke="none" d="
M379.913788,236.566864 
	C368.437073,232.498917 362.330750,222.851105 364.166077,212.167877 
	C365.900574,202.071442 374.939514,194.374908 385.202545,194.255554 
	C395.643066,194.134155 404.632721,201.671188 406.601410,212.292770 
	C408.974457,225.096161 397.922089,240.203018 379.913788,236.566864 
M376.665497,222.738251 
	C381.497986,227.227631 385.947693,228.223831 390.587891,225.639160 
	C394.934784,223.217880 397.002655,219.394714 396.411713,214.444702 
	C395.847076,209.714890 393.148499,206.375122 388.529510,205.163666 
	C384.056183,203.990372 379.863220,204.889053 376.835205,208.721954 
	C373.464264,212.988907 373.296631,217.517975 376.665497,222.738251 
z" />
    <path fill="#FF0808" opacity="1.000000" stroke="none" d="
M251.228195,340.167847 
	C255.289261,337.494629 258.801910,337.974426 262.697540,339.997559 
	C268.433197,342.976318 274.442810,345.429749 280.348663,348.078094 
	C287.446045,351.260681 287.451935,351.247528 286.783661,359.885590 
	C278.015991,356.103149 269.440918,352.194855 260.676239,348.772034 
	C258.530243,347.933990 255.489212,347.982727 253.330856,348.827515 
	C244.573029,352.255524 235.998734,356.152374 227.235229,359.928650 
	C226.528992,351.361725 226.525238,351.353485 233.635422,348.115784 
	C239.374496,345.502411 245.124023,342.912018 251.228195,340.167847 
z" />
    <path fill="#FF0808" opacity="1.000000" stroke="none" d="
M226.938599,378.795380 
	C226.019562,373.983521 228.082550,371.922028 232.097275,370.359314 
	C239.366592,367.529694 246.316589,363.884491 253.564590,360.992493 
	C255.572174,360.191406 258.428131,360.166840 260.433899,360.956635 
	C267.229889,363.632629 273.810822,366.852173 280.489899,369.828278 
	C287.448669,372.928986 287.456757,372.910828 286.735931,381.445770 
	C278.236969,377.783752 269.844696,374.351318 261.630615,370.535217 
	C258.488098,369.075287 255.902084,368.900726 252.712524,370.406281 
	C245.352905,373.880157 237.818634,376.987152 230.321564,380.163544 
	C229.107483,380.677917 227.174088,382.706573 226.938599,378.795380 
z" />
    <path fill="#F8CA02" opacity="1.000000" stroke="none" d="
M336.612793,351.841431 
	C336.819336,352.271881 336.694733,352.620239 336.262390,352.990753 
	C336.063629,352.595062 336.172638,352.177155 336.612793,351.841431 
z" />
    <path fill="#FF0500" opacity="1.000000" stroke="none" d="
M139.830139,215.981689 
	C139.160278,221.462860 136.645157,225.679459 131.534744,226.307114 
	C128.157166,226.721924 123.946648,225.586960 121.083595,223.681549 
	C117.191544,221.091263 116.483749,216.468796 118.150719,211.999939 
	C119.801712,207.573929 123.081337,205.011917 127.946007,204.787735 
	C132.975235,204.555939 136.612091,206.753845 138.735870,211.269836 
	C139.356506,212.589539 139.481918,214.142151 139.830139,215.981689 
z" />
    <path fill="#FF0500" opacity="1.000000" stroke="none" d="
M376.438782,222.436066 
	C373.296631,217.517975 373.464264,212.988907 376.835205,208.721954 
	C379.863220,204.889053 384.056183,203.990372 388.529510,205.163666 
	C393.148499,206.375122 395.847076,209.714890 396.411713,214.444702 
	C397.002655,219.394714 394.934784,223.217880 390.587891,225.639160 
	C385.947693,228.223831 381.497986,227.227631 376.438782,222.436066 
z" />
</svg>